<?xml version="1.0" standalone="no"?>
<!DOCTYPE svg PUBLIC "-//W3C//DTD SVG 20010904//EN"
 "http://www.w3.org/TR/2001/REC-SVG-20010904/DTD/svg10.dtd">
<svg version="1.0" xmlns="http://www.w3.org/2000/svg"
 width="2400.000000pt" height="1145.000000pt" viewBox="0 0 2400.000000 1145.000000"
 preserveAspectRatio="xMidYMid meet">

<g transform="translate(0.000000,1145.000000) scale(0.100000,-0.100000)"
fill="#000000" stroke="none">
<path d="M100 3160 l0 -2720 2180 0 2180 0 0 625 0 625 -1365 0 -1365 0 0 450
0 450 985 0 985 0 0 570 0 570 -985 0 -985 0 0 450 0 450 1089 2 1088 3 -356
622 -356 623 -1547 0 -1548 0 0 -2720z"/>
<path d="M3723 5867 c3 -8 429 -748 946 -1645 l941 -1631 0 -1075 0 -1076 815
0 815 0 0 1073 0 1074 931 1614 c512 888 940 1629 951 1647 l20 32 -889 0
-888 0 -457 -882 c-251 -486 -461 -884 -465 -885 -4 -1 -213 395 -464 880
l-457 882 -902 3 c-755 2 -901 0 -897 -11z"/>
<path d="M13575 3717 l-120 -62 -3 -192 -2 -193 -41 30 c-136 98 -355 72 -470
-58 -90 -102 -129 -228 -129 -418 0 -149 18 -245 65 -340 44 -90 102 -149 185
-187 55 -26 76 -31 145 -31 86 0 146 19 212 70 l33 25 0 -35 0 -36 130 0 130
0 0 745 c0 410 -3 745 -7 745 -5 -1 -62 -29 -128 -63z m-225 -618 c25 -11 57
-32 73 -46 l27 -27 0 -217 0 -217 -31 -30 c-44 -43 -89 -62 -143 -62 -87 0
-137 36 -177 125 -32 70 -39 264 -14 351 18 64 74 129 117 137 53 10 106 5
148 -14z"/>
<path d="M12483 3707 l-123 -62 0 -682 0 -683 130 0 130 0 0 745 c0 410 -3
745 -7 744 -5 0 -63 -28 -130 -62z"/>
<path d="M11870 3625 l0 -125 125 0 125 0 0 125 0 125 -125 0 -125 0 0 -125z"/>
<path d="M13950 3625 l0 -125 125 0 125 0 0 125 0 125 -125 0 -125 0 0 -125z"/>
<path d="M18783 3686 l-123 -61 0 -667 0 -668 125 0 125 0 0 35 c0 19 3 35 6
35 3 0 20 -11 38 -25 178 -136 431 -73 535 132 45 90 62 165 68 308 15 348
-121 563 -370 582 -87 7 -155 -11 -225 -58 -24 -16 -45 -29 -47 -29 -3 0 -6
107 -7 239 l-3 238 -122 -61z m414 -589 c77 -52 109 -151 100 -312 -10 -193
-69 -278 -192 -278 -60 0 -109 20 -158 63 l-37 32 0 208 c0 193 1 209 20 233
64 81 190 107 267 54z"/>
<path d="M20978 3674 l-128 -64 0 -135 0 -135 -80 0 -80 0 0 -125 0 -125 79 0
79 0 4 -297 c4 -261 7 -305 23 -353 26 -74 103 -154 165 -170 65 -18 204 -8
261 17 51 23 50 20 65 180 l6 72 -51 -19 c-77 -30 -133 -27 -173 9 l-33 29 -3
266 -3 266 111 0 110 0 0 125 0 125 -110 0 -110 0 -2 199 -3 199 -127 -64z"/>
<path d="M9420 3011 l0 -721 353 0 c275 0 366 4 415 15 214 51 333 204 334
430 1 100 -18 165 -67 229 -24 31 -98 89 -127 98 -6 2 14 29 44 59 70 70 98
139 98 243 0 170 -75 278 -238 339 -54 20 -78 21 -434 25 l-378 3 0 -720z
m710 454 c95 -56 94 -220 -2 -272 -28 -15 -65 -18 -240 -21 l-208 -4 0 162 0
161 208 -3 c187 -3 210 -5 242 -23z m-13 -540 c91 -27 139 -106 131 -215 -5
-76 -40 -129 -105 -161 -46 -23 -58 -24 -253 -24 l-205 0 -3 208 -2 207 193 0
c143 0 207 -4 244 -15z"/>
<path d="M21718 3669 l-118 -59 0 -135 0 -135 -80 0 -80 0 0 -125 0 -125 75 0
75 0 0 -257 c0 -282 8 -361 45 -433 29 -57 95 -116 144 -130 62 -17 175 -12
246 11 36 12 65 27 65 33 0 6 7 56 15 111 19 135 20 128 -15 110 -84 -44 -178
-35 -210 18 -18 29 -20 52 -20 284 l0 252 118 3 117 3 0 120 0 120 -117 3
-118 3 0 194 c0 150 -3 195 -12 194 -7 0 -66 -27 -130 -60z"/>
<path d="M17415 3359 c-97 -14 -265 -75 -265 -96 0 -4 23 -46 52 -94 l52 -88
37 20 c103 52 269 65 346 28 53 -25 73 -62 80 -141 3 -32 4 -58 2 -58 -2 0
-33 9 -68 20 -188 59 -399 17 -505 -101 -61 -68 -80 -127 -74 -238 3 -65 10
-99 30 -141 97 -209 399 -274 577 -125 l31 27 0 -41 0 -41 125 0 126 0 -3 413
-3 412 -27 52 c-84 158 -268 227 -513 192z m258 -607 l47 -21 0 -79 0 -80 -39
-35 c-39 -35 -119 -67 -168 -67 -46 0 -110 22 -137 47 -34 31 -46 62 -46 116
0 56 31 104 83 128 57 27 190 22 260 -9z"/>
<path d="M23733 3361 c-40 -10 -112 -52 -137 -80 -28 -30 -36 -26 -36 19 l0
40 -125 0 -125 0 0 -525 0 -525 124 0 124 0 4 333 c4 291 6 337 22 375 46 107
176 141 300 78 l44 -22 31 123 c17 67 31 125 31 128 0 3 -24 17 -53 31 -58 26
-153 38 -204 25z"/>
<path d="M15833 3345 c-23 -7 -62 -24 -86 -38 -154 -90 -237 -326 -207 -584
34 -298 173 -457 400 -457 81 0 143 21 207 70 l33 25 0 -61 c0 -146 -87 -223
-267 -237 -40 -3 -73 -9 -73 -14 0 -4 19 -50 41 -102 l42 -95 56 5 c198 18
322 85 389 211 66 123 66 121 70 725 l3 547 -130 0 -131 0 0 -36 0 -35 -43 31
c-80 57 -206 76 -304 45z m245 -241 c20 -8 52 -29 70 -46 l32 -32 0 -217 0
-217 -37 -32 c-71 -63 -159 -78 -233 -40 -77 39 -112 136 -112 305 0 159 40
251 122 284 38 15 116 13 158 -5z"/>
<path d="M20059 3346 c-160 -46 -287 -185 -334 -367 -23 -84 -23 -253 -1 -337
54 -211 198 -344 403 -373 142 -20 300 26 401 117 l43 39 -80 79 -80 79 -38
-26 c-60 -41 -108 -57 -170 -57 -59 0 -129 25 -167 58 -27 24 -66 112 -66 150
l0 32 320 0 320 0 0 93 c0 229 -98 415 -259 490 -53 25 -78 30 -155 33 -56 2
-109 -2 -137 -10z m208 -232 c44 -25 85 -94 97 -161 l6 -33 -200 0 -200 0 0
33 c1 43 31 105 68 140 64 60 147 68 229 21z"/>
<path d="M22579 3346 c-166 -48 -301 -203 -339 -391 -17 -81 -15 -227 4 -308
35 -152 127 -273 252 -333 183 -88 409 -59 551 71 l48 43 -35 37 c-19 20 -57
55 -83 77 l-48 40 -37 -25 c-59 -41 -107 -57 -171 -57 -117 0 -216 84 -228
195 l-6 45 327 0 c304 0 326 1 326 18 0 62 -23 241 -36 280 -48 141 -124 234
-232 285 -54 25 -79 30 -156 33 -56 2 -109 -2 -137 -10z m206 -230 c42 -22 88
-98 99 -163 l6 -33 -200 0 -200 0 0 33 c1 43 31 105 68 140 62 59 145 68 227
23z"/>
<path d="M14826 3325 c-32 -13 -71 -35 -85 -49 -15 -14 -30 -26 -34 -26 -4 0
-7 20 -7 45 l0 45 -125 0 -125 0 0 -530 0 -530 130 0 130 0 0 323 c0 353 5
396 56 457 39 46 80 63 150 64 75 0 125 -28 157 -88 21 -40 22 -51 25 -398 l3
-358 130 0 131 0 -4 373 c-4 350 -6 376 -26 439 -42 126 -122 212 -224 243
-82 24 -211 20 -282 -10z"/>
<path d="M10720 2998 c0 -380 7 -435 60 -545 43 -87 112 -147 202 -174 129
-39 287 -12 352 60 28 30 36 26 36 -19 l0 -40 125 0 125 0 0 530 0 530 -125 0
-125 0 0 -320 c0 -190 -4 -339 -11 -369 -22 -106 -83 -156 -189 -156 -112 0
-168 55 -189 185 -6 36 -11 199 -11 363 l0 297 -125 0 -125 0 0 -342z"/>
<path d="M11870 2810 l0 -530 125 0 125 0 0 530 0 530 -125 0 -125 0 0 -530z"/>
<path d="M13950 2810 l0 -530 125 0 125 0 0 530 0 530 -125 0 -125 0 0 -530z"/>
<path d="M21513 1867 l-123 -62 0 -192 c0 -106 -2 -193 -5 -193 -3 0 -24 14
-47 30 -83 61 -197 75 -309 40 -124 -39 -207 -130 -258 -279 -23 -69 -25 -91
-26 -241 0 -146 3 -174 24 -240 32 -103 55 -145 112 -206 71 -74 150 -108 254
-108 93 -1 139 13 201 60 24 19 46 34 49 34 3 0 5 -16 5 -35 l0 -35 125 0 125
0 0 745 c0 410 -1 745 -2 744 -2 0 -58 -28 -125 -62z m-228 -621 c28 -13 63
-38 78 -55 l27 -33 0 -205 0 -205 -36 -34 c-57 -52 -98 -67 -165 -62 -66 5
-100 25 -137 78 -37 55 -47 107 -47 245 0 124 1 133 30 190 24 49 38 64 75 83
57 28 112 28 175 -2z"/>
<path d="M12833 1857 l-123 -62 0 -677 0 -678 130 0 130 0 0 158 0 157 63 81
c34 44 66 81 71 83 5 1 58 -105 116 -236 l107 -238 141 -3 142 -3 -34 73 c-18
40 -90 198 -160 350 -77 167 -124 283 -120 290 4 7 62 78 129 158 67 80 125
151 129 158 6 9 -24 12 -137 12 l-144 0 -149 -196 -149 -197 -3 417 c-1 229
-6 416 -10 415 -4 0 -62 -28 -129 -62z"/>
<path d="M20418 1859 l-118 -59 0 -680 0 -680 125 0 125 0 0 740 c0 407 -3
740 -7 739 -5 0 -61 -27 -125 -60z"/>
<path d="M13770 1775 l0 -125 130 0 130 0 0 125 0 125 -130 0 -130 0 0 -125z"/>
<path d="M12310 1507 c-51 -14 -107 -46 -135 -77 -27 -29 -35 -25 -35 20 l0
40 -125 0 -125 0 0 -525 0 -525 124 0 124 0 4 333 c4 352 7 376 56 430 52 58
171 69 259 24 l51 -25 31 124 c17 68 31 126 31 129 0 3 -24 17 -52 30 -67 30
-149 38 -208 22z"/>
<path d="M19895 1506 c-57 -18 -96 -40 -124 -70 -33 -35 -41 -33 -41 14 l0 40
-125 0 -125 0 0 -525 0 -525 124 0 125 0 3 338 c3 245 7 345 16 367 47 110
180 142 311 76 l37 -19 29 116 c15 64 30 122 32 129 6 16 -59 48 -125 62 -65
14 -86 13 -137 -3z"/>
<path d="M11137 1499 c-166 -39 -304 -186 -352 -374 -20 -78 -20 -253 0 -330
68 -259 290 -417 528 -377 244 42 406 257 407 540 0 275 -152 493 -378 541
-61 13 -151 13 -205 0z m178 -248 c51 -24 88 -63 117 -126 19 -42 23 -67 23
-155 0 -130 -19 -193 -79 -255 -111 -115 -272 -63 -330 108 -20 61 -21 206 -1
274 41 138 159 206 270 154z"/>
<path d="M14697 1500 c-50 -13 -90 -34 -132 -71 l-35 -31 0 46 0 46 -130 0
-130 0 0 -525 0 -525 129 0 129 0 5 333 c4 361 7 384 60 444 40 45 82 63 149
63 74 0 125 -31 157 -95 l26 -49 3 -348 3 -348 125 0 124 0 0 353 c0 274 -4
366 -15 414 -31 134 -90 214 -190 264 -55 27 -78 32 -152 35 -49 2 -105 -1
-126 -6z"/>
<path d="M15647 1490 c-142 -45 -244 -184 -278 -376 -15 -85 -6 -289 15 -367
41 -148 120 -253 229 -303 115 -53 288 -33 358 42 12 13 27 24 32 24 16 0 -1
-129 -23 -175 -36 -74 -145 -125 -267 -125 -29 0 -53 -3 -52 -7 0 -5 19 -51
43 -103 l42 -95 60 3 c237 11 394 136 440 351 11 52 14 179 14 594 l0 527
-125 0 -125 0 0 -30 c0 -16 -2 -30 -5 -30 -3 0 -24 14 -47 30 -82 60 -202 75
-311 40z m246 -231 c20 -5 55 -27 77 -48 l40 -38 0 -210 0 -210 -36 -36 c-97
-97 -232 -91 -301 12 -38 56 -48 108 -48 247 0 125 1 133 30 189 47 91 130
124 238 94z"/>
<path d="M18711 1494 c-177 -47 -310 -206 -347 -416 -37 -202 20 -402 151
-533 71 -71 146 -110 244 -126 238 -39 450 108 527 366 13 43 18 93 18 175 1
179 -48 311 -153 417 -115 114 -284 159 -440 117z m195 -243 c175 -80 192
-449 26 -566 -37 -25 -52 -30 -103 -29 -49 1 -67 6 -102 30 -131 92 -154 379
-40 514 54 65 142 86 219 51z"/>
<path d="M9322 1473 c3 -10 70 -247 149 -526 l143 -508 110 3 110 3 63 230
c34 127 72 274 84 328 13 54 25 94 29 90 4 -4 45 -153 91 -330 l84 -323 112 0
112 0 11 38 c7 20 73 255 149 522 l136 485 -124 3 c-68 1 -125 1 -127 -1 -5
-4 -132 -555 -140 -605 -4 -23 -9 -41 -11 -38 -3 3 -26 87 -52 188 -26 101
-65 245 -87 321 l-39 138 -110 -3 -110 -3 -66 -235 c-37 -129 -75 -272 -85
-317 -10 -46 -21 -83 -24 -83 -4 0 -14 42 -23 93 -10 50 -43 194 -73 320 l-56
227 -130 0 c-119 0 -130 -1 -126 -17z"/>
<path d="M13770 965 l0 -525 130 0 130 0 0 525 0 525 -130 0 -130 0 0 -525z"/>
<path d="M16914 1463 c4 -16 71 -252 148 -525 l141 -498 112 0 112 0 48 178
c26 97 65 244 86 325 20 82 39 150 41 153 3 2 38 -123 78 -279 41 -155 80
-303 88 -329 l14 -48 111 0 112 0 144 513 c79 281 146 518 149 525 3 10 -23
12 -124 10 l-128 -3 -70 -285 c-38 -157 -73 -303 -78 -324 -9 -38 -12 -31 -58
150 -27 104 -66 250 -88 324 l-39 135 -110 3 -109 3 -67 -238 c-37 -131 -75
-276 -86 -322 -11 -46 -22 -85 -24 -87 -2 -2 -11 38 -20 89 -10 50 -43 197
-74 325 l-57 232 -129 0 -129 0 6 -27z"/>
</g>
</svg>
